<?xml version="1.0" standalone="no"?>
<!DOCTYPE svg PUBLIC "-//W3C//DTD SVG 20010904//EN"
 "http://www.w3.org/TR/2001/REC-SVG-20010904/DTD/svg10.dtd">
<svg version="1.0" xmlns="http://www.w3.org/2000/svg"
 width="172.000000pt" height="130.000000pt" viewBox="0 0 172.000000 130.000000"
 preserveAspectRatio="xMidYMid meet">

<g transform="translate(0.000000,130.000000) scale(0.100000,-0.100000)"
fill="#000000" stroke="none">
<path d="M537 1293 c-4 -3 -7 -28 -7 -55 l0 -48 -105 0 -105 0 0 -55 0 -55
-55 0 -55 0 0 -55 0 -55 -50 0 -50 0 0 -50 0 -50 -55 0 -55 0 0 -220 0 -220
55 0 55 0 0 -50 0 -50 50 0 50 0 0 -55 0 -55 55 0 55 0 0 -55 0 -55 104 0 105
0 3 -52 3 -53 323 -3 322 -2 0 55 0 54 108 3 107 3 3 53 3 52 50 0 49 0 0 55
0 55 55 0 55 0 0 49 0 50 53 3 52 3 0 215 0 215 -52 3 -53 3 0 50 0 49 -55 0
-55 0 0 55 0 55 -49 0 -50 0 -3 53 -3 52 -107 3 -108 3 0 54 0 55 -318 0
c-175 0 -322 -3 -325 -7z m643 -158 l0 -55 105 0 105 0 0 -55 0 -55 55 0 55 0
0 -55 0 -55 55 0 55 0 0 -210 0 -210 -55 0 -55 0 0 -55 0 -55 -55 0 -55 0 0
-55 0 -55 -105 0 -105 0 0 -55 0 -55 -320 0 -320 0 0 55 0 55 -110 0 -110 0 0
55 0 55 -49 0 -50 0 -3 53 -3 52 -52 3 -53 3 0 209 0 209 53 3 52 3 3 53 3 52
50 0 49 0 0 55 0 55 110 0 110 0 0 55 0 55 320 0 320 0 0 -55z"/>
</g>
</svg>
